<mxfile host="app.diagrams.net" agent="Mozilla/5.0 (Windows NT 10.0; Win64; x64) AppleWebKit/537.36 (KHTML, like Gecko) Chrome/132.0.0.0 Safari/537.36" version="26.0.10" pages="3">
  <diagram name="Página-1" id="8hV5TWjGE_7CaSvqrjXi">
    <mxGraphModel dx="1400" dy="753" grid="1" gridSize="10" guides="1" tooltips="1" connect="1" arrows="1" fold="1" page="1" pageScale="1" pageWidth="827" pageHeight="1169" math="0" shadow="0">
      <root>
        <mxCell id="0" />
        <mxCell id="1" parent="0" />
        <mxCell id="68YF1DD-tD559lAwoICq-11" value="" style="edgeStyle=orthogonalEdgeStyle;rounded=0;orthogonalLoop=1;jettySize=auto;html=1;" edge="1" parent="1" source="68YF1DD-tD559lAwoICq-1" target="68YF1DD-tD559lAwoICq-3">
          <mxGeometry relative="1" as="geometry" />
        </mxCell>
        <mxCell id="68YF1DD-tD559lAwoICq-1" value="Início" style="rounded=1;whiteSpace=wrap;html=1;" vertex="1" parent="1">
          <mxGeometry x="360" y="50" width="120" height="60" as="geometry" />
        </mxCell>
        <mxCell id="68YF1DD-tD559lAwoICq-12" value="" style="edgeStyle=orthogonalEdgeStyle;rounded=0;orthogonalLoop=1;jettySize=auto;html=1;" edge="1" parent="1" source="68YF1DD-tD559lAwoICq-3" target="68YF1DD-tD559lAwoICq-4">
          <mxGeometry relative="1" as="geometry" />
        </mxCell>
        <mxCell id="68YF1DD-tD559lAwoICq-3" value="N1,N2,N3" style="html=1;strokeWidth=2;shape=manualInput;whiteSpace=wrap;rounded=1;size=26;arcSize=11;" vertex="1" parent="1">
          <mxGeometry x="370" y="140" width="100" height="60" as="geometry" />
        </mxCell>
        <mxCell id="68YF1DD-tD559lAwoICq-13" value="" style="edgeStyle=orthogonalEdgeStyle;rounded=0;orthogonalLoop=1;jettySize=auto;html=1;" edge="1" parent="1" source="68YF1DD-tD559lAwoICq-4" target="68YF1DD-tD559lAwoICq-5">
          <mxGeometry relative="1" as="geometry" />
        </mxCell>
        <mxCell id="68YF1DD-tD559lAwoICq-4" value="média- (n1+n2+n3) /3" style="rounded=0;whiteSpace=wrap;html=1;" vertex="1" parent="1">
          <mxGeometry x="360" y="240" width="120" height="60" as="geometry" />
        </mxCell>
        <mxCell id="68YF1DD-tD559lAwoICq-17" value="" style="edgeStyle=orthogonalEdgeStyle;rounded=0;orthogonalLoop=1;jettySize=auto;html=1;entryX=0.5;entryY=0;entryDx=0;entryDy=0;" edge="1" parent="1" source="68YF1DD-tD559lAwoICq-5" target="68YF1DD-tD559lAwoICq-16">
          <mxGeometry relative="1" as="geometry">
            <Array as="points">
              <mxPoint x="620" y="400" />
            </Array>
          </mxGeometry>
        </mxCell>
        <mxCell id="68YF1DD-tD559lAwoICq-5" value="média &amp;gt;=0&lt;div&gt;e&lt;/div&gt;&lt;div&gt;média &amp;lt;=4&lt;/div&gt;" style="rhombus;whiteSpace=wrap;html=1;" vertex="1" parent="1">
          <mxGeometry x="356.25" y="340" width="127.5" height="120" as="geometry" />
        </mxCell>
        <mxCell id="68YF1DD-tD559lAwoICq-14" value="" style="edgeStyle=orthogonalEdgeStyle;rounded=0;orthogonalLoop=1;jettySize=auto;html=1;" edge="1" parent="1" source="68YF1DD-tD559lAwoICq-6" target="68YF1DD-tD559lAwoICq-5">
          <mxGeometry relative="1" as="geometry" />
        </mxCell>
        <mxCell id="68YF1DD-tD559lAwoICq-43" style="edgeStyle=orthogonalEdgeStyle;rounded=0;orthogonalLoop=1;jettySize=auto;html=1;entryX=0;entryY=0.333;entryDx=0;entryDy=0;entryPerimeter=0;" edge="1" parent="1" source="68YF1DD-tD559lAwoICq-6" target="68YF1DD-tD559lAwoICq-36">
          <mxGeometry relative="1" as="geometry">
            <mxPoint x="330" y="1000" as="targetPoint" />
            <Array as="points">
              <mxPoint x="200" y="1000" />
            </Array>
          </mxGeometry>
        </mxCell>
        <mxCell id="68YF1DD-tD559lAwoICq-6" value="&#39;reprovado&quot;" style="shape=document;whiteSpace=wrap;html=1;boundedLbl=1;" vertex="1" parent="1">
          <mxGeometry x="160" y="365" width="110" height="70" as="geometry" />
        </mxCell>
        <mxCell id="68YF1DD-tD559lAwoICq-8" value="" style="strokeWidth=2;html=1;shape=mxgraph.flowchart.display;whiteSpace=wrap;" vertex="1" parent="1">
          <mxGeometry x="70" y="725" width="100" height="60" as="geometry" />
        </mxCell>
        <mxCell id="68YF1DD-tD559lAwoICq-15" value="Sim" style="text;html=1;align=center;verticalAlign=middle;whiteSpace=wrap;rounded=0;" vertex="1" parent="1">
          <mxGeometry x="280" y="370" width="60" height="30" as="geometry" />
        </mxCell>
        <mxCell id="68YF1DD-tD559lAwoICq-21" value="" style="edgeStyle=orthogonalEdgeStyle;rounded=0;orthogonalLoop=1;jettySize=auto;html=1;" edge="1" parent="1" source="68YF1DD-tD559lAwoICq-16" target="68YF1DD-tD559lAwoICq-20">
          <mxGeometry relative="1" as="geometry">
            <Array as="points">
              <mxPoint x="520" y="540" />
              <mxPoint x="520" y="540" />
            </Array>
          </mxGeometry>
        </mxCell>
        <mxCell id="68YF1DD-tD559lAwoICq-26" value="" style="edgeStyle=orthogonalEdgeStyle;rounded=0;orthogonalLoop=1;jettySize=auto;html=1;" edge="1" parent="1" source="68YF1DD-tD559lAwoICq-16" target="68YF1DD-tD559lAwoICq-25">
          <mxGeometry relative="1" as="geometry">
            <Array as="points">
              <mxPoint x="740" y="600" />
            </Array>
          </mxGeometry>
        </mxCell>
        <mxCell id="68YF1DD-tD559lAwoICq-16" value="média &amp;gt; 4&lt;div&gt;e&lt;/div&gt;&lt;div&gt;média &amp;lt; 7&lt;/div&gt;" style="rhombus;whiteSpace=wrap;html=1;" vertex="1" parent="1">
          <mxGeometry x="560" y="490" width="120" height="110" as="geometry" />
        </mxCell>
        <mxCell id="68YF1DD-tD559lAwoICq-19" value="Não" style="text;html=1;align=center;verticalAlign=middle;whiteSpace=wrap;rounded=0;" vertex="1" parent="1">
          <mxGeometry x="500" y="370" width="60" height="30" as="geometry" />
        </mxCell>
        <mxCell id="68YF1DD-tD559lAwoICq-35" value="" style="edgeStyle=orthogonalEdgeStyle;rounded=0;orthogonalLoop=1;jettySize=auto;html=1;" edge="1" parent="1" source="68YF1DD-tD559lAwoICq-20">
          <mxGeometry relative="1" as="geometry">
            <mxPoint x="410" y="970" as="targetPoint" />
          </mxGeometry>
        </mxCell>
        <mxCell id="68YF1DD-tD559lAwoICq-20" value="&quot;reprovado&quot;" style="shape=document;whiteSpace=wrap;html=1;boundedLbl=1;" vertex="1" parent="1">
          <mxGeometry x="350" y="520" width="120" height="65" as="geometry" />
        </mxCell>
        <mxCell id="68YF1DD-tD559lAwoICq-23" value="Sim" style="text;html=1;align=center;verticalAlign=middle;whiteSpace=wrap;rounded=0;" vertex="1" parent="1">
          <mxGeometry x="490" y="510" width="60" height="30" as="geometry" />
        </mxCell>
        <mxCell id="68YF1DD-tD559lAwoICq-28" value="" style="edgeStyle=orthogonalEdgeStyle;rounded=0;orthogonalLoop=1;jettySize=auto;html=1;" edge="1" parent="1" source="68YF1DD-tD559lAwoICq-25" target="68YF1DD-tD559lAwoICq-27">
          <mxGeometry relative="1" as="geometry" />
        </mxCell>
        <mxCell id="68YF1DD-tD559lAwoICq-32" value="" style="edgeStyle=orthogonalEdgeStyle;rounded=0;orthogonalLoop=1;jettySize=auto;html=1;" edge="1" parent="1" source="68YF1DD-tD559lAwoICq-25" target="68YF1DD-tD559lAwoICq-31">
          <mxGeometry relative="1" as="geometry" />
        </mxCell>
        <mxCell id="68YF1DD-tD559lAwoICq-42" style="edgeStyle=orthogonalEdgeStyle;rounded=0;orthogonalLoop=1;jettySize=auto;html=1;entryX=0.917;entryY=0;entryDx=0;entryDy=0;entryPerimeter=0;" edge="1" parent="1" source="68YF1DD-tD559lAwoICq-25" target="68YF1DD-tD559lAwoICq-36">
          <mxGeometry relative="1" as="geometry">
            <mxPoint x="740" y="960" as="targetPoint" />
            <Array as="points">
              <mxPoint x="740" y="1000" />
              <mxPoint x="460" y="1000" />
            </Array>
          </mxGeometry>
        </mxCell>
        <mxCell id="68YF1DD-tD559lAwoICq-25" value="média &amp;gt; = 7&lt;div&gt;e&amp;nbsp;&lt;/div&gt;&lt;div&gt;média &amp;lt; = 10&lt;/div&gt;" style="rhombus;whiteSpace=wrap;html=1;" vertex="1" parent="1">
          <mxGeometry x="680" y="660" width="120" height="110" as="geometry" />
        </mxCell>
        <mxCell id="68YF1DD-tD559lAwoICq-40" style="edgeStyle=orthogonalEdgeStyle;rounded=0;orthogonalLoop=1;jettySize=auto;html=1;entryX=0.75;entryY=0;entryDx=0;entryDy=0;" edge="1" parent="1" target="68YF1DD-tD559lAwoICq-36">
          <mxGeometry relative="1" as="geometry">
            <mxPoint x="440" y="960" as="targetPoint" />
            <mxPoint x="469" y="710" as="sourcePoint" />
            <Array as="points">
              <mxPoint x="520" y="710" />
              <mxPoint x="520" y="910" />
              <mxPoint x="440" y="910" />
            </Array>
          </mxGeometry>
        </mxCell>
        <mxCell id="68YF1DD-tD559lAwoICq-27" value="&quot;aprovado&quot;" style="shape=document;whiteSpace=wrap;html=1;boundedLbl=1;" vertex="1" parent="1">
          <mxGeometry x="430" y="682.5" width="120" height="65" as="geometry" />
        </mxCell>
        <mxCell id="68YF1DD-tD559lAwoICq-30" value="Sim" style="text;html=1;align=center;verticalAlign=middle;whiteSpace=wrap;rounded=0;" vertex="1" parent="1">
          <mxGeometry x="610" y="682.5" width="60" height="30" as="geometry" />
        </mxCell>
        <mxCell id="68YF1DD-tD559lAwoICq-37" style="edgeStyle=orthogonalEdgeStyle;rounded=0;orthogonalLoop=1;jettySize=auto;html=1;entryX=1;entryY=0.25;entryDx=0;entryDy=0;" edge="1" parent="1" source="68YF1DD-tD559lAwoICq-31" target="68YF1DD-tD559lAwoICq-36">
          <mxGeometry relative="1" as="geometry">
            <mxPoint x="960" y="1020" as="targetPoint" />
            <Array as="points">
              <mxPoint x="980" y="1020" />
              <mxPoint x="470" y="1020" />
            </Array>
          </mxGeometry>
        </mxCell>
        <mxCell id="68YF1DD-tD559lAwoICq-31" value="erro&amp;nbsp;&lt;div&gt;de&lt;/div&gt;&lt;div&gt;digitação&amp;nbsp;&lt;/div&gt;" style="shape=document;whiteSpace=wrap;html=1;boundedLbl=1;" vertex="1" parent="1">
          <mxGeometry x="900" y="690" width="120" height="80" as="geometry" />
        </mxCell>
        <mxCell id="68YF1DD-tD559lAwoICq-36" value="FIM" style="rounded=1;whiteSpace=wrap;html=1;" vertex="1" parent="1">
          <mxGeometry x="350" y="980" width="120" height="60" as="geometry" />
        </mxCell>
      </root>
    </mxGraphModel>
  </diagram>
  <diagram id="ovRPqtas4XQLMKaIyi4s" name="Página-2">
    <mxGraphModel dx="1050" dy="565" grid="1" gridSize="10" guides="1" tooltips="1" connect="1" arrows="1" fold="1" page="1" pageScale="1" pageWidth="827" pageHeight="1169" math="0" shadow="0">
      <root>
        <mxCell id="0" />
        <mxCell id="1" parent="0" />
        <mxCell id="kYQxI5UF3AGgjF9rP4Da-3" value="" style="edgeStyle=orthogonalEdgeStyle;rounded=0;orthogonalLoop=1;jettySize=auto;html=1;" edge="1" parent="1" source="kYQxI5UF3AGgjF9rP4Da-1">
          <mxGeometry relative="1" as="geometry">
            <mxPoint x="400" y="180" as="targetPoint" />
          </mxGeometry>
        </mxCell>
        <mxCell id="kYQxI5UF3AGgjF9rP4Da-1" value="Início" style="rounded=1;whiteSpace=wrap;html=1;" vertex="1" parent="1">
          <mxGeometry x="340" y="70" width="120" height="60" as="geometry" />
        </mxCell>
        <mxCell id="kYQxI5UF3AGgjF9rP4Da-5" value="" style="edgeStyle=orthogonalEdgeStyle;rounded=0;orthogonalLoop=1;jettySize=auto;html=1;entryX=0.5;entryY=0;entryDx=0;entryDy=0;entryPerimeter=0;" edge="1" parent="1" target="kYQxI5UF3AGgjF9rP4Da-21">
          <mxGeometry relative="1" as="geometry">
            <mxPoint x="400" y="240" as="sourcePoint" />
            <mxPoint x="400" y="310" as="targetPoint" />
            <Array as="points">
              <mxPoint x="400" y="305" />
            </Array>
          </mxGeometry>
        </mxCell>
        <mxCell id="kYQxI5UF3AGgjF9rP4Da-7" value="" style="edgeStyle=orthogonalEdgeStyle;rounded=0;orthogonalLoop=1;jettySize=auto;html=1;" edge="1" parent="1">
          <mxGeometry relative="1" as="geometry">
            <mxPoint x="460" y="365" as="sourcePoint" />
            <mxPoint x="660" y="360" as="targetPoint" />
            <Array as="points">
              <mxPoint x="460" y="366" />
              <mxPoint x="660" y="366" />
            </Array>
          </mxGeometry>
        </mxCell>
        <mxCell id="kYQxI5UF3AGgjF9rP4Da-18" value="N= diferente&amp;nbsp;&lt;div&gt;de&amp;nbsp;&lt;/div&gt;&lt;div&gt;0&lt;/div&gt;" style="html=1;strokeWidth=2;shape=manualInput;whiteSpace=wrap;rounded=1;size=26;arcSize=11;" vertex="1" parent="1">
          <mxGeometry x="337" y="180" width="126" height="80" as="geometry" />
        </mxCell>
        <mxCell id="kYQxI5UF3AGgjF9rP4Da-27" value="" style="edgeStyle=orthogonalEdgeStyle;rounded=0;orthogonalLoop=1;jettySize=auto;html=1;" edge="1" parent="1" source="kYQxI5UF3AGgjF9rP4Da-24" target="kYQxI5UF3AGgjF9rP4Da-34">
          <mxGeometry relative="1" as="geometry">
            <mxPoint x="90" y="450" as="targetPoint" />
            <Array as="points">
              <mxPoint x="60" y="355" />
              <mxPoint x="60" y="460" />
              <mxPoint x="90" y="460" />
            </Array>
          </mxGeometry>
        </mxCell>
        <mxCell id="kYQxI5UF3AGgjF9rP4Da-21" value="" style="strokeWidth=2;html=1;shape=mxgraph.flowchart.decision;whiteSpace=wrap;" vertex="1" parent="1">
          <mxGeometry x="350" y="305" width="100" height="100" as="geometry" />
        </mxCell>
        <mxCell id="kYQxI5UF3AGgjF9rP4Da-24" value="num &amp;gt; 0" style="text;html=1;align=center;verticalAlign=middle;whiteSpace=wrap;rounded=0;" vertex="1" parent="1">
          <mxGeometry x="370" y="340" width="60" height="30" as="geometry" />
        </mxCell>
        <mxCell id="kYQxI5UF3AGgjF9rP4Da-30" value="o numero precisa ser diferente de 0, vonte&amp;nbsp;" style="strokeWidth=2;html=1;shape=mxgraph.flowchart.document2;whiteSpace=wrap;size=0.25;" vertex="1" parent="1">
          <mxGeometry x="630" y="345" width="100" height="60" as="geometry" />
        </mxCell>
        <mxCell id="kYQxI5UF3AGgjF9rP4Da-33" value="" style="edgeStyle=orthogonalEdgeStyle;rounded=0;orthogonalLoop=1;jettySize=auto;html=1;" edge="1" parent="1" source="kYQxI5UF3AGgjF9rP4Da-43" target="kYQxI5UF3AGgjF9rP4Da-32">
          <mxGeometry relative="1" as="geometry">
            <Array as="points">
              <mxPoint x="310" y="465" />
              <mxPoint x="310" y="465" />
            </Array>
          </mxGeometry>
        </mxCell>
        <mxCell id="kYQxI5UF3AGgjF9rP4Da-31" value="num &amp;gt; 0" style="rhombus;whiteSpace=wrap;html=1;" vertex="1" parent="1">
          <mxGeometry x="180" y="425" width="80" height="80" as="geometry" />
        </mxCell>
        <mxCell id="kYQxI5UF3AGgjF9rP4Da-37" style="edgeStyle=orthogonalEdgeStyle;rounded=0;orthogonalLoop=1;jettySize=auto;html=1;entryX=1;entryY=0.75;entryDx=0;entryDy=0;" edge="1" parent="1" source="kYQxI5UF3AGgjF9rP4Da-32" target="kYQxI5UF3AGgjF9rP4Da-36">
          <mxGeometry relative="1" as="geometry">
            <mxPoint x="397" y="640" as="targetPoint" />
            <Array as="points">
              <mxPoint x="400" y="630" />
              <mxPoint x="290" y="630" />
            </Array>
          </mxGeometry>
        </mxCell>
        <mxCell id="kYQxI5UF3AGgjF9rP4Da-32" value="&quot;positivo&quot;" style="shape=document;whiteSpace=wrap;html=1;boundedLbl=1;" vertex="1" parent="1">
          <mxGeometry x="337" y="440" width="120" height="50" as="geometry" />
        </mxCell>
        <mxCell id="kYQxI5UF3AGgjF9rP4Da-35" style="edgeStyle=orthogonalEdgeStyle;rounded=0;orthogonalLoop=1;jettySize=auto;html=1;entryX=0;entryY=0.5;entryDx=0;entryDy=0;" edge="1" parent="1" source="kYQxI5UF3AGgjF9rP4Da-34" target="kYQxI5UF3AGgjF9rP4Da-31">
          <mxGeometry relative="1" as="geometry" />
        </mxCell>
        <mxCell id="kYQxI5UF3AGgjF9rP4Da-38" style="edgeStyle=orthogonalEdgeStyle;rounded=0;orthogonalLoop=1;jettySize=auto;html=1;entryX=0;entryY=0.5;entryDx=0;entryDy=0;" edge="1" parent="1" source="kYQxI5UF3AGgjF9rP4Da-34" target="kYQxI5UF3AGgjF9rP4Da-36">
          <mxGeometry relative="1" as="geometry">
            <mxPoint x="65" y="640" as="targetPoint" />
            <Array as="points">
              <mxPoint x="50" y="630" />
            </Array>
          </mxGeometry>
        </mxCell>
        <mxCell id="kYQxI5UF3AGgjF9rP4Da-34" value="&quot;negativo&quot;" style="shape=document;whiteSpace=wrap;html=1;boundedLbl=1;" vertex="1" parent="1">
          <mxGeometry x="10" y="440" width="110" height="50" as="geometry" />
        </mxCell>
        <mxCell id="kYQxI5UF3AGgjF9rP4Da-36" value="Fim" style="rounded=1;whiteSpace=wrap;html=1;" vertex="1" parent="1">
          <mxGeometry x="170" y="600" width="120" height="60" as="geometry" />
        </mxCell>
        <mxCell id="kYQxI5UF3AGgjF9rP4Da-42" value="sim" style="text;html=1;align=center;verticalAlign=middle;whiteSpace=wrap;rounded=0;" vertex="1" parent="1">
          <mxGeometry x="120" y="440" width="60" height="30" as="geometry" />
        </mxCell>
        <mxCell id="kYQxI5UF3AGgjF9rP4Da-44" value="" style="edgeStyle=orthogonalEdgeStyle;rounded=0;orthogonalLoop=1;jettySize=auto;html=1;" edge="1" parent="1" source="kYQxI5UF3AGgjF9rP4Da-31" target="kYQxI5UF3AGgjF9rP4Da-43">
          <mxGeometry relative="1" as="geometry">
            <mxPoint x="260" y="465" as="sourcePoint" />
            <mxPoint x="337" y="465" as="targetPoint" />
            <Array as="points" />
          </mxGeometry>
        </mxCell>
        <mxCell id="kYQxI5UF3AGgjF9rP4Da-43" value="não" style="text;html=1;align=center;verticalAlign=middle;whiteSpace=wrap;rounded=0;" vertex="1" parent="1">
          <mxGeometry x="270" y="440" width="60" height="30" as="geometry" />
        </mxCell>
      </root>
    </mxGraphModel>
  </diagram>
  <diagram id="dWesqhP2xYZDg-6W5RY5" name="Página-3">
    <mxGraphModel dx="2625" dy="1413" grid="1" gridSize="10" guides="1" tooltips="1" connect="1" arrows="1" fold="1" page="1" pageScale="1" pageWidth="827" pageHeight="1169" math="0" shadow="0">
      <root>
        <mxCell id="0" />
        <mxCell id="1" parent="0" />
        <mxCell id="S1aymI8CPx8GI5ClJD6t-1" value="Início" style="rounded=1;whiteSpace=wrap;html=1;" vertex="1" parent="1">
          <mxGeometry x="365" y="20" width="120" height="60" as="geometry" />
        </mxCell>
        <mxCell id="S1aymI8CPx8GI5ClJD6t-5" value="" style="edgeStyle=orthogonalEdgeStyle;rounded=0;orthogonalLoop=1;jettySize=auto;html=1;" edge="1" parent="1">
          <mxGeometry relative="1" as="geometry">
            <mxPoint x="401" y="220" as="sourcePoint" />
            <mxPoint x="426" y="300" as="targetPoint" />
          </mxGeometry>
        </mxCell>
        <mxCell id="gtL_InuO2H8k67DF_TQw-2" value="" style="edgeStyle=orthogonalEdgeStyle;rounded=0;orthogonalLoop=1;jettySize=auto;html=1;" edge="1" parent="1" source="S1aymI8CPx8GI5ClJD6t-4">
          <mxGeometry relative="1" as="geometry">
            <mxPoint x="240" y="365" as="targetPoint" />
            <Array as="points">
              <mxPoint x="240" y="370" />
            </Array>
          </mxGeometry>
        </mxCell>
        <mxCell id="_rVdaQ4JzkCoEpI4PIpa-9" value="" style="edgeStyle=orthogonalEdgeStyle;rounded=0;orthogonalLoop=1;jettySize=auto;html=1;" edge="1" parent="1" source="S1aymI8CPx8GI5ClJD6t-4" target="_rVdaQ4JzkCoEpI4PIpa-8">
          <mxGeometry relative="1" as="geometry" />
        </mxCell>
        <mxCell id="S1aymI8CPx8GI5ClJD6t-4" value="n1 == n2 e n2 == n3 e n3 == n1" style="rhombus;whiteSpace=wrap;html=1;rounded=1;" vertex="1" parent="1">
          <mxGeometry x="330" y="300" width="190" height="140" as="geometry" />
        </mxCell>
        <mxCell id="_rVdaQ4JzkCoEpI4PIpa-29" value="" style="edgeStyle=orthogonalEdgeStyle;rounded=0;orthogonalLoop=1;jettySize=auto;html=1;" edge="1" parent="1" source="_rVdaQ4JzkCoEpI4PIpa-3" target="S1aymI8CPx8GI5ClJD6t-1">
          <mxGeometry relative="1" as="geometry">
            <Array as="points">
              <mxPoint x="430" y="120" />
              <mxPoint x="430" y="120" />
            </Array>
          </mxGeometry>
        </mxCell>
        <mxCell id="_rVdaQ4JzkCoEpI4PIpa-3" value="n1,n2,n3" style="shape=parallelogram;html=1;strokeWidth=2;perimeter=parallelogramPerimeter;whiteSpace=wrap;rounded=1;arcSize=12;size=0.23;" vertex="1" parent="1">
          <mxGeometry x="365" y="160" width="120" height="60" as="geometry" />
        </mxCell>
        <mxCell id="_rVdaQ4JzkCoEpI4PIpa-5" value="SIM" style="text;html=1;align=center;verticalAlign=middle;whiteSpace=wrap;rounded=0;" vertex="1" parent="1">
          <mxGeometry x="260" y="330" width="60" height="30" as="geometry" />
        </mxCell>
        <mxCell id="_rVdaQ4JzkCoEpI4PIpa-27" style="edgeStyle=orthogonalEdgeStyle;rounded=0;orthogonalLoop=1;jettySize=auto;html=1;entryX=0;entryY=0.5;entryDx=0;entryDy=0;" edge="1" parent="1" source="_rVdaQ4JzkCoEpI4PIpa-6" target="_rVdaQ4JzkCoEpI4PIpa-3">
          <mxGeometry relative="1" as="geometry">
            <mxPoint x="170" y="190" as="targetPoint" />
            <Array as="points">
              <mxPoint x="170" y="190" />
            </Array>
          </mxGeometry>
        </mxCell>
        <mxCell id="_rVdaQ4JzkCoEpI4PIpa-6" value="&quot;não pode numeros iguais, digite novamente&quot;" style="shape=document;whiteSpace=wrap;html=1;boundedLbl=1;" vertex="1" parent="1">
          <mxGeometry x="110" y="340" width="120" height="80" as="geometry" />
        </mxCell>
        <mxCell id="_rVdaQ4JzkCoEpI4PIpa-11" value="" style="edgeStyle=orthogonalEdgeStyle;rounded=0;orthogonalLoop=1;jettySize=auto;html=1;" edge="1" parent="1" source="_rVdaQ4JzkCoEpI4PIpa-8" target="_rVdaQ4JzkCoEpI4PIpa-10">
          <mxGeometry relative="1" as="geometry" />
        </mxCell>
        <mxCell id="_rVdaQ4JzkCoEpI4PIpa-13" value="" style="edgeStyle=orthogonalEdgeStyle;rounded=0;orthogonalLoop=1;jettySize=auto;html=1;" edge="1" parent="1" source="_rVdaQ4JzkCoEpI4PIpa-8" target="_rVdaQ4JzkCoEpI4PIpa-12">
          <mxGeometry relative="1" as="geometry" />
        </mxCell>
        <mxCell id="_rVdaQ4JzkCoEpI4PIpa-25" value="" style="edgeStyle=orthogonalEdgeStyle;rounded=0;orthogonalLoop=1;jettySize=auto;html=1;entryX=0;entryY=0.5;entryDx=0;entryDy=0;" edge="1" parent="1">
          <mxGeometry relative="1" as="geometry">
            <mxPoint x="654" y="585" as="sourcePoint" />
            <mxPoint x="624" y="1085" as="targetPoint" />
            <Array as="points">
              <mxPoint x="654" y="560" />
              <mxPoint x="414" y="560" />
              <mxPoint x="414" y="1085" />
            </Array>
          </mxGeometry>
        </mxCell>
        <mxCell id="_rVdaQ4JzkCoEpI4PIpa-8" value="n1 &amp;gt; n2&amp;nbsp;&lt;div&gt;e&lt;/div&gt;&lt;div&gt;n1 &amp;gt; n3&lt;/div&gt;" style="rhombus;whiteSpace=wrap;html=1;rounded=1;" vertex="1" parent="1">
          <mxGeometry x="560" y="460" width="180" height="130" as="geometry" />
        </mxCell>
        <mxCell id="_rVdaQ4JzkCoEpI4PIpa-10" value="&quot;N1 é o maior&quot;" style="shape=document;whiteSpace=wrap;html=1;boundedLbl=1;rounded=1;" vertex="1" parent="1">
          <mxGeometry x="270" y="497.5" width="120" height="55" as="geometry" />
        </mxCell>
        <mxCell id="_rVdaQ4JzkCoEpI4PIpa-15" value="" style="edgeStyle=orthogonalEdgeStyle;rounded=0;orthogonalLoop=1;jettySize=auto;html=1;" edge="1" parent="1" source="_rVdaQ4JzkCoEpI4PIpa-12" target="_rVdaQ4JzkCoEpI4PIpa-14">
          <mxGeometry relative="1" as="geometry" />
        </mxCell>
        <mxCell id="_rVdaQ4JzkCoEpI4PIpa-17" value="" style="edgeStyle=orthogonalEdgeStyle;rounded=0;orthogonalLoop=1;jettySize=auto;html=1;" edge="1" parent="1" source="_rVdaQ4JzkCoEpI4PIpa-12" target="_rVdaQ4JzkCoEpI4PIpa-16">
          <mxGeometry relative="1" as="geometry" />
        </mxCell>
        <mxCell id="_rVdaQ4JzkCoEpI4PIpa-30" style="edgeStyle=orthogonalEdgeStyle;rounded=0;orthogonalLoop=1;jettySize=auto;html=1;entryX=0.838;entryY=0.992;entryDx=0;entryDy=0;entryPerimeter=0;" edge="1" parent="1" source="_rVdaQ4JzkCoEpI4PIpa-12" target="_rVdaQ4JzkCoEpI4PIpa-20">
          <mxGeometry relative="1" as="geometry">
            <mxPoint x="1030" y="1122.1333821614583" as="targetPoint" />
            <Array as="points">
              <mxPoint x="1010" y="670" />
              <mxPoint x="1010" y="1120" />
            </Array>
          </mxGeometry>
        </mxCell>
        <mxCell id="_rVdaQ4JzkCoEpI4PIpa-12" value="n2 &amp;gt; n1&lt;div&gt;e&lt;/div&gt;&lt;div&gt;n2 &amp;gt; n3&lt;/div&gt;" style="rhombus;whiteSpace=wrap;html=1;rounded=1;" vertex="1" parent="1">
          <mxGeometry x="810" y="600" width="190" height="140" as="geometry" />
        </mxCell>
        <mxCell id="_rVdaQ4JzkCoEpI4PIpa-14" value="&quot;n2 é o maior&lt;span style=&quot;background-color: transparent; color: light-dark(rgb(0, 0, 0), rgb(255, 255, 255));&quot;&gt;&#39;&lt;/span&gt;" style="shape=document;whiteSpace=wrap;html=1;boundedLbl=1;rounded=1;" vertex="1" parent="1">
          <mxGeometry x="540" y="630" width="120" height="80" as="geometry" />
        </mxCell>
        <mxCell id="_rVdaQ4JzkCoEpI4PIpa-19" value="" style="edgeStyle=orthogonalEdgeStyle;rounded=0;orthogonalLoop=1;jettySize=auto;html=1;" edge="1" parent="1" source="_rVdaQ4JzkCoEpI4PIpa-16" target="_rVdaQ4JzkCoEpI4PIpa-18">
          <mxGeometry relative="1" as="geometry" />
        </mxCell>
        <mxCell id="_rVdaQ4JzkCoEpI4PIpa-21" style="edgeStyle=orthogonalEdgeStyle;rounded=0;orthogonalLoop=1;jettySize=auto;html=1;entryX=1;entryY=0.5;entryDx=0;entryDy=0;" edge="1" parent="1" target="_rVdaQ4JzkCoEpI4PIpa-20">
          <mxGeometry relative="1" as="geometry">
            <mxPoint x="904.5" y="1090" as="targetPoint" />
            <mxPoint x="904.5" y="960" as="sourcePoint" />
            <Array as="points">
              <mxPoint x="905" y="961" />
              <mxPoint x="910" y="961" />
              <mxPoint x="910" y="1090" />
            </Array>
          </mxGeometry>
        </mxCell>
        <mxCell id="_rVdaQ4JzkCoEpI4PIpa-16" value="n3 &amp;gt; n1&lt;div&gt;e&lt;/div&gt;&lt;div&gt;n3 &amp;gt; n2&lt;/div&gt;" style="rhombus;whiteSpace=wrap;html=1;rounded=1;" vertex="1" parent="1">
          <mxGeometry x="810" y="820" width="190" height="140" as="geometry" />
        </mxCell>
        <mxCell id="_rVdaQ4JzkCoEpI4PIpa-18" value="&quot;n3 é o maior&quot;&amp;nbsp;" style="shape=document;whiteSpace=wrap;html=1;boundedLbl=1;rounded=1;" vertex="1" parent="1">
          <mxGeometry x="575" y="850" width="120" height="80" as="geometry" />
        </mxCell>
        <mxCell id="_rVdaQ4JzkCoEpI4PIpa-20" value="Fim" style="rounded=1;whiteSpace=wrap;html=1;" vertex="1" parent="1">
          <mxGeometry x="620" y="1060" width="120" height="60" as="geometry" />
        </mxCell>
        <mxCell id="_rVdaQ4JzkCoEpI4PIpa-28" value="NÂO" style="text;html=1;align=center;verticalAlign=middle;whiteSpace=wrap;rounded=0;" vertex="1" parent="1">
          <mxGeometry x="550" y="330" width="60" height="30" as="geometry" />
        </mxCell>
      </root>
    </mxGraphModel>
  </diagram>
</mxfile>
